<svg width="24" height="24" viewBox="0 0 24 24" fill="none" xmlns="http://www.w3.org/2000/svg">
<path d="M19.6031 8.30625C19.35 8.22188 19.0969 8.14219 18.8438 8.06719C18.8859 7.89375 18.9234 7.72031 18.9609 7.54688C19.5375 4.75313 19.1578 2.50781 17.8781 1.76719C16.6453 1.05938 14.6344 1.79531 12.6 3.56719C12.3984 3.74063 12.2016 3.92344 12.0141 4.10625C11.8875 3.98438 11.7562 3.8625 11.625 3.74531C9.49219 1.85156 7.35469 1.05469 6.075 1.8C4.84688 2.5125 4.48125 4.62656 4.99687 7.27031C5.04844 7.53281 5.10469 7.79063 5.17031 8.05313C4.87031 8.1375 4.575 8.23125 4.29844 8.32969C1.79531 9.19688 0 10.5656 0 11.9813C0 13.4438 1.9125 14.9109 4.51406 15.8016C4.725 15.8719 4.93594 15.9422 5.15156 16.0031C5.08125 16.2844 5.02031 16.5609 4.96406 16.8469C4.47188 19.4484 4.85625 21.5109 6.08438 22.2188C7.35 22.95 9.47812 22.2 11.55 20.3859C11.7141 20.2406 11.8781 20.0906 12.0422 19.9313C12.2484 20.1328 12.4641 20.325 12.6797 20.5125C14.6859 22.2375 16.6688 22.9359 17.8922 22.2281C19.1578 21.4969 19.5703 19.2797 19.0359 16.5797C18.9938 16.3734 18.9469 16.1625 18.8953 15.9469C19.0453 15.9047 19.1906 15.8578 19.3359 15.8109C22.0406 14.9156 24 13.4672 24 11.9813C24 10.5609 22.1531 9.18281 19.6031 8.30625V8.30625ZM13.2609 4.32656C15.0047 2.80781 16.6313 2.2125 17.3719 2.63906C18.1641 3.09375 18.4687 4.93125 17.9719 7.34531C17.9391 7.50469 17.9063 7.65938 17.8641 7.81406C16.8234 7.57969 15.7687 7.41094 14.7094 7.31719C14.1 6.44531 13.4344 5.61094 12.7125 4.82813C12.8953 4.65469 13.0734 4.49063 13.2609 4.32656V4.32656ZM7.8375 14.4141C8.07656 14.8219 8.32031 15.2297 8.57812 15.6281C7.84687 15.5484 7.12031 15.4313 6.40313 15.2766C6.60938 14.6016 6.86719 13.9031 7.16719 13.1906C7.38281 13.6031 7.60312 14.0109 7.8375 14.4141V14.4141ZM6.41719 8.775C7.09219 8.625 7.80938 8.50313 8.55469 8.40938C8.30625 8.79844 8.0625 9.19688 7.83281 9.6C7.60313 9.99844 7.37812 10.4063 7.16719 10.8188C6.87187 10.1203 6.62344 9.43594 6.41719 8.775ZM7.70156 12.0047C8.01094 11.3578 8.34844 10.725 8.70469 10.1016C9.06094 9.47813 9.44531 8.87344 9.84844 8.27813C10.5516 8.22656 11.2687 8.19844 12 8.19844C12.7313 8.19844 13.4531 8.22656 14.1516 8.27813C14.55 8.86875 14.9297 9.47344 15.2906 10.0922C15.6516 10.7109 15.9891 11.3438 16.3078 11.9859C15.9937 12.6328 15.6562 13.2703 15.2953 13.8984C14.9391 14.5219 14.5594 15.1266 14.1609 15.7266C13.4625 15.7781 12.7359 15.8016 12 15.8016C11.2641 15.8016 10.5516 15.7781 9.8625 15.7359C9.45469 15.1406 9.07031 14.5313 8.70938 13.9078C8.34844 13.2844 8.01563 12.6516 7.70156 12.0047ZM16.1672 14.4047C16.4062 13.9922 16.6313 13.575 16.8516 13.1531C17.1516 13.8328 17.4141 14.5219 17.6437 15.2297C16.9172 15.3938 16.1812 15.5203 15.4406 15.6047C15.6937 15.2109 15.9328 14.8078 16.1672 14.4047ZM16.8422 10.8188C16.6219 10.4063 16.3969 9.99375 16.1625 9.59063C15.9328 9.19219 15.6938 8.79844 15.4453 8.40938C16.2 8.50313 16.9219 8.62969 17.5969 8.78438C17.3812 9.47813 17.1281 10.1531 16.8422 10.8188V10.8188ZM12.0094 5.54531C12.5016 6.07969 12.9656 6.64219 13.3969 7.22344C12.4687 7.18125 11.5359 7.18125 10.6078 7.22344C11.0672 6.61875 11.5406 6.05625 12.0094 5.54531ZM6.57187 2.67188C7.35937 2.2125 9.10781 2.86875 10.95 4.5C11.0672 4.60313 11.1844 4.71563 11.3062 4.82813C10.5797 5.61094 9.90938 6.44531 9.29531 7.31719C8.23594 7.41094 7.18594 7.575 6.14531 7.80469C6.08438 7.56563 6.03281 7.32188 5.98125 7.07813C5.54062 4.80938 5.83125 3.09844 6.57187 2.67188V2.67188ZM5.42344 15.0281C5.22656 14.9719 5.03438 14.9109 4.84219 14.8453C3.84375 14.5313 2.70937 14.0344 1.88906 13.3828C1.41562 13.0547 1.09687 12.5484 1.00781 11.9813C1.00781 11.1234 2.48906 10.0266 4.62656 9.28125C4.89375 9.1875 5.16562 9.10313 5.4375 9.02344C5.75625 10.0406 6.14062 11.0391 6.58594 12.0047C6.13594 12.9844 5.74687 13.9969 5.42344 15.0281V15.0281ZM10.8891 19.6219C10.1156 20.3297 9.22031 20.8922 8.24531 21.2766C7.725 21.525 7.125 21.5484 6.59063 21.3375C5.84531 20.9063 5.53594 19.2516 5.95781 17.025C6.00937 16.7625 6.06563 16.5 6.13125 16.2422C7.18125 16.4672 8.24062 16.6219 9.31406 16.7016C9.93281 17.5781 10.6125 18.4172 11.3391 19.2047C11.1891 19.35 11.0391 19.4906 10.8891 19.6219ZM12.0375 18.4828C11.5594 17.9672 11.0812 17.3953 10.6172 16.7813C11.0672 16.8 11.5312 16.8094 12 16.8094C12.4828 16.8094 12.9562 16.8 13.425 16.7766C12.9937 17.3719 12.5297 17.9391 12.0375 18.4828V18.4828ZM18.1641 19.8891C18.1219 20.4609 17.8406 20.9953 17.3906 21.3563C16.6453 21.7875 15.0563 21.225 13.3406 19.7531C13.1438 19.5844 12.9469 19.4016 12.7453 19.2141C13.4625 18.4219 14.1234 17.5828 14.7234 16.7016C15.7969 16.6125 16.8656 16.4484 17.9203 16.2094C17.9672 16.4016 18.0094 16.5938 18.0469 16.7813C18.2766 17.7938 18.3141 18.8484 18.1641 19.8891V19.8891ZM19.0172 14.85C18.8859 14.8922 18.7547 14.9344 18.6188 14.9719C18.2906 13.95 17.8875 12.9516 17.4234 11.9813C17.8734 11.025 18.2531 10.0406 18.5719 9.03281C18.8156 9.10313 19.05 9.17813 19.275 9.25313C21.4594 10.0031 22.9922 11.1188 22.9922 11.9719C22.9922 12.8906 21.3563 14.0766 19.0172 14.85ZM12 14.1469C13.1859 14.1469 14.1469 13.1859 14.1469 12C14.1469 10.8141 13.1859 9.85313 12 9.85313C10.8141 9.85313 9.85312 10.8141 9.85312 12C9.85312 13.1859 10.8141 14.1469 12 14.1469Z" fill="black"/>
</svg>
