<svg width="24" height="24" viewBox="0 0 24 24" fill="none" xmlns="http://www.w3.org/2000/svg">
<path d="M17.802 8.56C17.802 8.56 15.856 14.663 15.697 15.167C15.207 11.3421 14.7123 7.51773 14.213 3.694C10.897 3.694 9.124 6.054 8.187 8.545L5.622 15.182C5.607 14.706 5.262 8.617 5.262 8.617C5.058 5.565 2.262 3.707 0 3.707L2.739 20.307C6.213 20.292 8.086 17.946 9.067 15.455C9.067 15.455 11.157 10.057 11.243 9.812C11.258 10.042 12.743 20.306 12.743 20.306C16.231 20.306 18.105 18.104 19.113 15.7L24 3.708C20.555 3.708 18.739 6.054 17.802 8.559V8.56Z" fill="black"/>
</svg>
