<svg width="32" height="32" viewBox="0 0 32 32" fill="none" xmlns="http://www.w3.org/2000/svg">
<g filter="url(#filter0_d_2_5)">
<path d="M22.9495 11.4795C22.9495 10.2075 22.492 9.327 22.1005 8.6415L21.9805 8.4465C21.505 7.6815 21.0895 7.0095 21.0895 6.2265C21.0895 5.2815 21.8065 4.3995 22.8175 4.3995C22.8475 4.3995 22.876 4.4025 22.9045 4.404L22.951 4.4085C21.0553 2.66721 18.5741 1.70237 16 1.7055C14.294 1.70462 12.6146 2.12823 11.1131 2.93815C9.61162 3.74808 8.33524 4.91886 7.399 6.345C7.639 6.3525 7.8685 6.3585 8.062 6.3585C9.1375 6.3585 10.804 6.228 10.804 6.228C11.359 6.195 11.425 7.0095 10.87 7.0755C10.87 7.0755 10.3135 7.1415 9.6925 7.173L13.4425 18.324L15.6925 11.565L14.0875 7.1715C13.534 7.1385 13.009 7.074 13.009 7.074C12.454 7.041 12.52 6.192 13.0735 6.225C13.0735 6.225 14.7745 6.3555 15.7855 6.3555C16.8625 6.3555 18.5305 6.225 18.5305 6.225C19.0855 6.192 19.15 7.008 18.595 7.074C18.595 7.074 18.037 7.1385 17.4175 7.1715L21.1375 18.237L22.1635 14.8065L22.2445 14.547C22.6495 13.257 22.948 12.3045 22.948 11.478L22.9495 11.4795ZM5.7055 12C5.7054 13.9331 6.24952 15.8272 7.27559 17.4655C8.30167 19.1039 9.76825 20.4202 11.5075 21.264L6.595 7.809C6.00674 9.12779 5.70363 10.556 5.7055 12V12Z" fill="black"/>
<path d="M13.0915 21.8745L16.1815 12.9L19.345 21.57C19.366 21.6195 19.39 21.666 19.4185 21.711C17.3792 22.4295 15.1652 22.4867 13.0915 21.8745V21.8745ZM25.0315 7.0605C25.0765 7.389 25.102 7.74 25.102 8.1195C25.102 9.1635 24.907 10.338 24.319 11.8065L21.175 20.8965C23.4951 19.5485 25.1968 17.3476 25.9175 14.763C26.6382 12.1784 26.3208 9.41448 25.033 7.0605H25.0315Z" fill="black"/>
<path fill-rule="evenodd" clip-rule="evenodd" d="M4 12C4 5.3835 9.3835 0 16 0C22.615 0 28 5.3835 28 12C28 18.6165 22.615 24 16 24C9.3835 24 4 18.6165 4 12ZM4.5505 12C4.5505 18.3135 9.6865 23.4495 16 23.4495C22.312 23.4495 27.448 18.3135 27.448 12C27.448 5.685 22.312 0.5505 16 0.5505C9.685 0.5505 4.5505 5.685 4.5505 12Z" fill="black"/>
</g>
<defs>
<filter id="filter0_d_2_5" x="0" y="0" width="32" height="32" filterUnits="userSpaceOnUse" color-interpolation-filters="sRGB">
<feFlood flood-opacity="0" result="BackgroundImageFix"/>
<feColorMatrix in="SourceAlpha" type="matrix" values="0 0 0 0 0 0 0 0 0 0 0 0 0 0 0 0 0 0 127 0" result="hardAlpha"/>
<feOffset dy="4"/>
<feGaussianBlur stdDeviation="2"/>
<feComposite in2="hardAlpha" operator="out"/>
<feColorMatrix type="matrix" values="0 0 0 0 0 0 0 0 0 0 0 0 0 0 0 0 0 0 0.25 0"/>
<feBlend mode="normal" in2="BackgroundImageFix" result="effect1_dropShadow_2_5"/>
<feBlend mode="normal" in="SourceGraphic" in2="effect1_dropShadow_2_5" result="shape"/>
</filter>
</defs>
</svg>
