<svg width="44" height="66" viewBox="0 0 44 66" fill="none" xmlns="http://www.w3.org/2000/svg">
<path fill-rule="evenodd" clip-rule="evenodd" d="M6.83716 60.2895C7.14201 59.9867 7.28656 59.8434 7.48414 59.6466V59.3186C7.87307 58.8936 8.25331 58.4877 8.62236 58.0723C8.93384 57.7218 9.21384 57.3408 9.54272 57.0086C9.90929 56.6387 10.2295 56.2295 10.618 55.872C10.9688 55.5498 11.4377 55.3058 11.6556 54.8684C11.9078 54.3593 12.4624 54.2044 12.7805 53.7762C13.0742 53.3806 13.4416 53.0401 13.7759 52.6764C13.7837 52.6843 13.8363 52.7373 13.9022 52.8028C15.04 51.8501 16.1596 50.8647 17.6213 50.2339C17.6358 50.1954 17.6855 50.0657 17.7464 49.9063C17.8288 49.9721 17.9042 50.0322 17.9817 50.0943C18.7405 49.6942 19.5382 49.3343 20.2817 48.913C21.1971 48.394 22.2227 48.0954 23.0689 47.4306C23.4938 47.0967 24.0547 46.8822 24.5873 46.7625C24.9137 46.6896 24.8491 46.4783 24.9705 46.3077C25.0786 46.3744 25.1871 46.4407 25.3321 46.5301C25.9335 46.2128 26.5527 45.8864 27.1906 45.5501C27.0705 45.4184 26.9976 45.3389 26.8828 45.213C27.0783 44.9359 27.0684 44.4898 27.7663 44.3746C27.4242 44.2549 27.2125 44.1808 26.952 44.0896C27.2751 43.7906 27.4018 43.673 27.5617 43.5247C27.6889 43.6021 27.8077 43.675 27.9386 43.755C28.1138 43.6556 28.3151 43.5421 28.509 43.4323C28.4945 43.3399 28.5057 43.2252 28.4684 43.2053C28.1901 43.0616 27.9018 42.9365 27.6189 42.8064C27.5207 42.2717 28.0447 42.3202 28.2712 42.094C28.2178 42.0406 28.1644 41.9876 28.0906 41.9134C28.1577 41.7805 28.229 41.6388 28.304 41.4897C28.031 41.2996 27.7738 41.1202 27.4085 40.8659C26.4736 40.7955 25.3892 40.8009 24.3454 40.5979C23.8062 40.4935 23.2089 40.5793 22.7574 40.3651C22.1966 40.0996 21.6353 40.3535 21.1457 40.1589C20.6056 39.9447 20.0411 40.0856 19.5457 39.9257C19.0018 39.7501 18.4381 39.864 17.9427 39.7057C16.7635 39.3288 15.484 39.3831 14.3553 38.8264C13.8529 38.9631 13.3509 38.5248 12.8485 38.8264C12.3282 38.4979 11.7334 38.4151 11.1469 38.2958C10.3189 38.1276 9.56094 37.6919 8.68491 37.6811C8.43722 37.6778 8.19201 37.484 7.79148 37.3104C8.85059 37.0039 9.75935 36.7405 10.8711 36.4186C10.934 36.3404 11.1428 36.0798 11.3532 35.8168C11.6825 35.9121 11.914 35.9792 12.1613 36.0504C13.1786 35.6578 14.4117 35.6238 15.3043 34.7784C15.648 35.2001 16.1393 34.8782 16.5063 34.9946C17.7108 34.3804 18.9993 34.3153 20.3699 33.9711C20.3844 33.955 20.5108 33.8166 20.6309 33.6849C21.1184 33.4989 21.6345 33.7499 22.1315 33.4343C22.4919 33.2048 23.0391 33.1556 23.4843 33.2032C24.0278 33.2612 24.555 33.1146 24.9522 32.9087C25.4456 32.6531 25.8954 32.8246 26.399 32.6917C26.4856 32.5972 26.6124 32.4589 26.788 32.2671C27.9076 32.3711 29.0404 32.1524 30.2138 32.0629C30.324 31.9183 30.4338 31.7738 30.5759 31.5874H31.734C31.5902 31.4192 31.5235 31.3418 31.3848 31.1802C31.9643 31.2362 32.2956 30.928 32.6042 30.4964C32.5441 30.3912 32.475 30.2698 32.4166 30.1667C32.9848 29.5831 33.5685 28.9837 34.1011 28.437C34.0154 28.1371 33.9499 27.9097 33.8659 27.616C33.7843 27.5767 33.631 27.503 33.4782 27.4292V27.1646C33.5962 27.1248 33.7263 27.0809 33.9243 27.0142C33.9735 26.3473 33.5784 25.9054 33.1302 25.4995C32.6054 25.4104 32.6054 25.4104 32.248 24.756C32.4915 24.8927 32.5839 24.9444 32.7276 25.0248C32.7537 24.9229 32.784 24.8073 32.825 24.6466C32.5719 24.6085 32.364 24.5775 32.1063 24.5385C32.195 24.4267 32.2534 24.3521 32.2969 24.297C31.8843 23.7271 31.4709 23.1559 31.0075 22.516H30.5046C30.6169 22.3838 30.6823 22.3064 30.7714 22.2016C30.6396 22.1569 30.5154 22.115 30.3514 22.0595V21.5811C30.2047 21.4345 30.0983 21.3285 29.9914 21.2216C29.7458 21.4262 29.3473 21.4664 29.2873 21.8764C28.9265 21.3732 29.3908 21.1553 29.6866 20.7925C29.4629 20.773 29.2885 20.7577 29.1054 20.742C28.8246 20.2776 28.4506 19.8779 28.432 19.2396C28.4166 18.707 27.8881 18.4444 27.3583 18.2278C27.4445 18.1114 27.4967 18.0409 27.6011 17.9009C27.3989 17.8612 27.2196 17.8264 26.9909 17.7821C26.9984 17.7286 27.0096 17.6495 27.0419 17.4143C26.8311 17.1177 26.4446 16.7433 26.2686 16.2872C26.018 15.6378 25.308 15.4207 25.0624 14.7514C24.847 14.1644 24.4444 13.6421 23.9967 13.1496C23.3862 12.4782 22.9355 11.6618 22.3788 10.8529H22.9985C23.049 10.9606 23.1219 11.1155 23.2217 11.3267C23.3895 11.2215 23.5361 11.1292 23.7117 11.0194C23.9988 11.1872 24.3222 11.3359 24.596 11.5488C24.8255 11.7269 25.2289 11.7472 25.2277 12.1651C25.6556 12.0524 25.8859 12.3697 26.1369 12.6153C26.2122 12.5395 26.2653 12.4865 26.3067 12.4451C27.2287 13.3418 28.3462 13.9188 29.5143 14.4188C29.7992 14.7178 30.0842 15.0164 30.3667 15.3122H30.7411C31.2398 15.6688 31.6735 15.9791 32.1668 16.3324C32.2973 16.1029 32.3901 15.9401 32.5098 15.7301C32.8333 15.9144 33.1373 16.088 33.4189 16.2487C33.3469 16.5424 33.2851 16.7959 33.2234 17.0469C33.8965 17.4954 34.5141 17.9072 35.304 18.4336C35.2041 17.9958 34.9772 17.8802 34.8177 17.6827C35.2634 17.4089 35.3636 17.8918 35.6072 18.026C35.7177 17.9461 35.8271 17.8657 36.062 17.6943C36.1166 17.9055 36.168 18.1031 36.2193 18.3007C36.2769 18.2447 36.3345 18.1888 36.3921 18.1333C36.3072 18.2779 36.2222 18.4224 36.1291 18.5819C36.4289 18.731 36.6766 18.854 36.921 18.975C37.0295 18.8801 37.1119 18.808 37.2006 18.7302C37.2747 18.7985 37.3538 18.8706 37.4557 18.9642C37.3982 19.2715 37.3377 19.5983 37.2818 19.8962C38.1901 20.4309 39.0546 20.9391 39.919 21.4478C39.9496 21.4167 39.9807 21.386 40.0109 21.3554C39.948 21.268 39.8854 21.1806 39.7301 20.9644C40.3005 21.0692 40.771 21.1557 41.3177 21.2564C41.4457 20.8231 41.5638 20.4226 41.7348 19.8411C41.751 19.8282 41.927 19.6899 42.1503 19.5143C41.0146 18.7778 40.1211 17.855 39.1801 17.0104C37.8774 15.8415 36.3908 14.9489 35.0293 13.8753C33.6119 12.7574 32.0454 11.8271 30.5473 10.8102C29.694 10.2316 28.8582 9.62604 27.9937 9.06396C26.7801 8.27533 25.5756 7.46639 24.3115 6.76763C23.7544 6.45988 23.341 5.96781 22.6994 5.7516C22.1485 5.56604 21.6925 5.0955 21.1983 4.7455C19.9363 3.85207 18.6493 2.99675 17.4892 1.96124C16.7341 1.28651 15.8895 0.710769 14.9675 0H13.6185C13.6081 0.327219 13.4809 0.679704 13.8405 1.03799C13.5435 1.07112 13.266 1.10178 13.0038 1.13077C12.4637 2.05609 12.3705 3.05266 12.5146 4.2145C12.6206 4.2903 12.8327 4.44189 13.2208 4.72024C13.2788 4.74343 13.5667 4.85899 13.9125 4.99734C13.785 5.35148 13.6893 5.6174 13.599 5.86799C13.8989 6.27349 14.1718 6.70053 14.504 7.07456C14.7869 7.39349 14.7683 7.99118 15.4753 7.9129C15.3092 8.07982 15.2558 8.13284 15.1568 8.23225C15.6804 8.43355 15.5491 9.25905 16.2656 9.26899C16.2892 9.46698 16.3104 9.64468 16.3352 9.85509C16.4284 9.87663 16.5307 9.90024 16.6442 9.92633C17.1549 11.2692 18.12 12.3295 19.0163 13.4661C19.0163 13.5489 18.9741 13.6877 19.0238 13.7705C19.2251 14.1048 19.3887 14.5857 19.6894 14.7079C20.1782 14.9059 20.1521 15.6365 20.7982 15.5876C20.814 15.861 20.8285 16.1145 20.8438 16.3862C20.9693 16.4322 21.0998 16.4798 21.2592 16.5382C21.2663 16.6704 21.2737 16.8153 21.2862 17.039C21.5541 17.2933 21.8656 17.5891 22.2343 17.9391C22.354 17.6856 22.4244 17.536 22.5217 17.3285C22.7114 17.6122 22.8825 17.8682 23.0535 18.1246C22.9835 18.2373 22.9135 18.3491 22.8013 18.5276C22.9811 18.6349 23.1753 18.7041 23.2979 18.8387C23.4052 18.9563 23.4317 19.1477 23.493 19.3038C23.4272 19.3995 23.3472 19.5151 23.2118 19.7118C23.3994 19.8224 23.5601 19.9164 23.8302 20.0755C23.9002 20.0556 24.1305 19.9906 24.3922 19.9165V20.3741C24.777 20.5796 25.0475 20.72 25.1531 21.2166C25.3325 22.0608 25.8598 22.8005 26.2611 23.573C26.3224 23.6915 26.5436 23.7267 26.6894 23.7992C26.6128 23.8915 26.5494 23.9682 26.5556 23.9603C26.8721 24.3302 27.1189 24.7175 27.4586 24.9888C27.8036 25.265 28.2406 25.427 28.7376 25.6921C28.8383 25.9389 28.6005 26.0035 27.9883 25.8789C28.3835 26.1957 28.516 26.3022 28.6772 26.431C28.8188 26.3602 28.9646 26.2873 29.2421 26.1485C29.1204 26.4612 29.0388 26.6712 28.9464 26.9082C29.0019 26.9819 29.0653 27.0676 29.1692 27.2068C29.0636 27.3054 28.9298 27.5245 28.8246 27.5117C28.3102 27.4487 27.9221 27.6951 27.5447 27.8977C26.718 27.6807 25.9931 28.1371 25.2256 28.2233C24.3806 28.3173 23.5266 28.4564 22.7197 28.7124C21.9468 28.9568 21.1631 29.2281 20.3786 29.3002C19.5457 29.3764 18.784 29.6763 17.9746 29.8092C17.1495 29.9447 16.3364 30.1994 15.5449 30.479C14.7824 30.7491 13.9784 30.8282 13.2117 31.1123C12.4326 31.401 11.6046 31.6388 10.7874 31.7908C9.97722 31.9415 9.26148 32.3139 8.47781 32.5078C7.69704 32.7008 6.92414 32.9315 6.16035 33.1841C5.36757 33.4463 4.59219 33.7611 3.80479 34.0407C3.04805 34.3095 2.2855 34.563 1.46124 34.8451C1.26201 35.0443 0.998577 35.3073 0.738873 35.567C0.803074 35.6391 0.875561 35.7215 0.941418 35.7953C0.976212 36.2786 0.560768 36.2741 0.335442 36.4008C0.245975 36.8863 0.161892 37.3407 0.0711823 37.8319C0.109703 37.8733 0.185085 37.9549 0.255085 38.0303C-0.272606 38.6209 0.129169 39.1246 0.463428 39.5666C0.801418 40.0127 1.24876 40.3755 1.6758 40.8025C2.7639 40.955 3.70828 41.8372 4.94964 41.5034C4.98402 41.6703 5.00515 41.7734 5.04035 41.9462C5.70805 42.0559 6.41426 42.1715 7.21367 42.3024C7.22153 42.3285 7.26006 42.4569 7.28864 42.5521C7.91574 42.7261 8.52089 42.9104 9.13515 43.0562C9.37663 43.1134 9.69597 43.1825 9.87988 43.0749C10.3475 42.8015 10.7377 42.8036 11.2037 43.0749C11.4178 43.1995 11.7334 43.1482 11.994 43.3308H11.108C11.1722 43.4667 11.2012 43.5657 11.2211 43.5636C11.8125 43.5098 12.358 43.7347 12.8891 43.912C13.3364 44.0615 13.8392 44.1406 14.1644 43.9579C14.586 43.721 14.9497 43.8995 15.5051 43.7127C15.3378 43.9451 15.2893 44.0126 15.2401 44.0809C15.9098 44.5113 16.1894 44.631 16.7154 44.3713C17.1363 44.1634 17.4867 44.3253 17.8793 44.4202C17.5795 44.4541 17.2796 44.4881 16.7639 44.5465C17.4946 44.7018 18.0077 44.8108 18.7318 44.9644C16.9462 45.7696 15.6075 46.893 14.1631 47.8568C12.6919 48.8385 12.0076 49.4622 11.1014 50.615C10.9365 50.8241 10.6404 50.926 10.4573 51.1257C10.1408 51.472 9.89313 51.8841 9.56384 52.2163C9.26147 52.5211 8.83941 52.7129 8.55692 53.0318C7.81012 53.8764 7.20704 54.8415 6.39976 55.6409C6.32065 55.7192 6.36704 55.925 6.3542 56.0882C6.19432 56.1872 5.96278 56.2551 5.85509 56.4096C5.32864 57.1647 4.78065 57.9132 4.34864 58.7221C4.00526 59.365 3.61012 59.9792 3.31231 60.6614C3.01781 61.3353 2.97142 62.0295 2.78171 62.698C2.58579 63.3898 2.77509 64.1337 3.111 64.856C3.90793 64.1689 4.65887 65.0391 5.46325 64.9911C5.08467 65.0205 4.70568 65.0499 4.32668 65.0793C4.33041 65.1394 4.33455 65.1998 4.33828 65.2599H5.08591C5.31207 65.2599 5.53822 65.2562 5.76396 65.2607C6.01704 65.2665 6.29663 65.1911 6.46603 65.4744C6.60603 65.1414 6.87816 65.5324 7.01941 65.3846C7.27331 65.1199 7.39384 65.6803 7.65976 65.4541C7.8068 65.3295 8.04828 65.2922 8.25331 65.2673C8.5068 65.2367 8.76651 65.2599 8.9997 65.2599C9.06556 65.0718 9.11153 64.9409 9.18402 64.7338C9.25278 64.9331 9.29627 65.059 9.35633 65.2346C9.47603 65.245 9.61728 65.2574 9.8484 65.2773C10.0654 65.0606 10.3227 64.8038 10.5538 64.5731C10.7538 64.5839 10.8984 64.5918 11.0305 64.5988C11.0889 64.7587 11.1366 64.8888 11.202 65.0689C11.2935 64.878 11.3635 64.7318 11.434 64.5856H11.6817C11.75 64.7305 11.8233 64.8854 11.9037 65.0565C12.5535 64.8453 13.1591 64.5429 13.8691 64.5599C14.1905 64.5673 14.5177 64.3325 14.8776 64.1937C14.8718 64.1896 14.9249 64.2306 15.006 64.2931C15.5747 64.1411 16.1641 63.9837 16.8902 63.7895C16.6454 63.5902 16.4818 63.4573 16.3298 63.3334C16.6902 63.2829 16.9288 63.3106 17.2995 63.4527C17.328 63.4312 17.3591 63.4125 17.3856 63.3881C17.4403 63.3363 17.4925 63.2821 17.5546 63.2195C17.6051 63.2746 17.654 63.3305 17.7058 63.3835C17.7311 63.4092 17.7617 63.4299 17.7924 63.4544C18.0898 63.3575 18.3892 63.2597 18.7827 63.1313V62.138C18.8337 62.1132 18.8846 62.0888 18.936 62.0643C19.0288 62.2064 19.1211 62.3489 19.2533 62.551C19.2085 62.6326 19.129 62.7767 18.9782 63.0514C19.5009 62.9221 19.9276 62.8169 20.3418 62.7142C20.372 62.5775 20.3944 62.4748 20.418 62.3679C20.9875 62.754 21.4063 62.4417 21.8321 62.1124C21.9679 62.0076 22.1332 61.9272 22.2972 61.8759C22.665 61.7603 23.0407 61.67 23.4897 61.5495C23.4934 61.5362 23.5228 61.436 23.5841 61.2289C23.7937 61.243 24.0451 61.2599 24.4448 61.2873C24.3806 61.3411 24.4453 61.2504 24.5306 61.2206C25.2215 60.9783 25.9401 60.8184 26.6119 60.5185C26.6753 60.4904 26.759 60.5131 26.829 60.4957C27.2846 60.3814 27.4892 59.7953 28.024 59.8413C28.4962 59.8819 28.7911 59.5083 29.1912 59.3803C29.6215 59.2428 30.0391 59.0651 30.4591 58.8978C30.5887 58.8464 30.7022 58.7449 30.8343 58.7155C30.9776 58.6832 31.1338 58.708 31.3529 58.708C31.4581 58.5689 31.5935 58.3908 31.6934 58.2586H32.4596C32.9124 57.7836 33.3626 57.2956 34.1123 57.3495C34.179 57.3544 34.2747 57.342 34.3128 57.2989C34.9573 56.5687 35.9725 56.5687 36.7412 56.0493C37.4827 55.5485 38.3873 55.2963 39.1763 54.8564C40.2218 54.274 41.225 53.6167 42.2431 52.9859C42.3367 52.9283 42.4295 52.8425 42.4808 52.7473C42.9621 51.8572 43.4339 50.9617 43.8643 50.1523C43.7566 49.5969 43.6679 49.1404 43.554 48.5535C43.3726 48.4421 43.0744 48.2594 42.7848 48.0817C42.1801 48.3153 41.5828 48.5125 41.0158 48.7755C40.4459 49.0398 39.8801 49.3314 39.3582 49.6789C38.215 50.4389 36.9309 50.9236 35.7447 51.5933C35.0426 51.9897 34.2208 52.1769 33.6389 52.7841C32.3109 53.135 31.1363 53.8341 29.8966 54.3871C29.3606 54.6261 28.8544 54.9483 28.2721 55.1033C27.7353 55.2453 27.2212 55.4719 26.6964 55.6591C25.0562 56.2456 23.4193 56.8392 21.7749 57.4133C20.9188 57.7123 20.0547 57.9927 19.1853 58.2516C18.3097 58.5121 17.3914 58.6849 16.546 58.9785C15.0644 59.493 13.5062 59.5795 12.0196 60.0343C11.2347 60.2746 10.3599 60.2431 9.52325 60.2812C8.7081 60.3189 7.88964 60.2895 6.83716 60.2895Z" fill="black"/>
</svg>
